<svg width="1000" height="704" viewBox="0 0 1000 704" fill="none" xmlns="http://www.w3.org/2000/svg">
<path d="M984.674 54.6689C963.046 67.481 928.188 92.1326 893.944 124.43C859.697 156.73 826.095 196.649 806.939 239.99L806.734 240.453L806.396 240.298L545.678 702.59L545.266 703.321L544.819 702.61L496.836 626.285L496.678 626.033L496.823 625.774L732.739 206.643L732.767 206.594L732.305 206.383L732.825 205.874C759.978 179.285 848.224 111.701 984.223 53.7783L984.674 54.6689ZM738.469 412.581C819.286 549.861 936.713 622.301 985.269 641.346L984.926 642.284C865.065 601.752 740.306 525.056 692.902 491.771L692.529 491.51L692.755 491.114L737.604 412.587L738.031 411.838L738.469 412.581ZM337.745 390.72L303.338 448.631C293.245 460.789 280.812 473.925 265.735 487.709C262.086 491.046 258.284 494.422 254.32 497.829C253.38 498.638 252.428 499.446 251.47 500.259C251.407 500.312 251.344 500.366 251.281 500.419C232.39 516.412 210.005 533.1 183.692 550.004C152.817 568.674 118.09 588.167 81.9277 605.971C57.0332 617.752 29.9715 629.381 0.589844 640.688L0.746094 641.529C0.622659 641.576 0.499404 641.623 0.375977 641.67L0 640.743C47.8527 620.037 162.647 543.595 238.562 403.614L238.974 402.856L239.027 402.943L246.246 390.217L246.39 389.964H338.194L337.745 390.72ZM441.702 390.198L527.672 527.057L527.828 527.305L527.688 527.562L485.702 604.546L485.3 605.284L484.843 604.577L346.893 390.735L346.395 389.964H441.556L441.702 390.198ZM1000.01 250.084L866.153 331.495V364.964L942.34 409.772L941.94 410.682C884.593 393.228 809.046 382.443 778.44 379.233L777.635 379.149L777.653 379.12H749.633L750.069 378.369L791.389 307.308L791.533 307.059H823.743L823.812 306.95L824.091 306.954C833.138 307.082 845.912 304.766 860.695 300.896C875.467 297.028 892.205 291.618 909.166 285.582C943.088 273.509 977.873 258.937 999.542 249.201L1000.01 250.084ZM28.5781 247.207C72.4288 261.281 170.916 290.961 214.859 297.37V297.189H535.079V297.981L535.639 298.697L566.295 337.88L566.562 338.222L566.262 338.535L535.605 370.413L535.079 370.96V371.225H534.825L534.745 371.308V371.225H214.859V371.127C194.692 375.158 164.025 381.6 136.778 387.979C123.095 391.183 110.278 394.37 100.09 397.228C94.9954 398.656 90.5622 400.001 87.0088 401.223C83.4521 402.446 80.8076 403.534 79.2617 404.449L79.2627 404.45L78.8516 404.706L78.3125 403.864C78.3157 403.862 78.319 403.86 78.3223 403.857L78.5947 403.688L78.7432 403.596L159.683 353.126V318.023L28.1914 248.125L28.5781 247.207ZM473.688 0.671875L659.623 290.839L659.787 291.096L659.634 291.36L614.983 368.343L614.572 369.052L614.13 368.362L426.863 76.2207L426.694 75.957L426.857 75.6895L472.842 0.679687L473.259 0L473.688 0.671875ZM417.041 99.3672L464.357 172.402L464.523 172.659L464.371 172.924L404.393 276.884L404.248 277.135H311.784L312.228 276.381L416.19 99.3857L416.601 98.6865L417.041 99.3672ZM76.2236 78.1055C210.107 119.71 299.61 182.341 327.66 208.497L327.948 208.766L327.754 209.108L289.768 276.223L289.35 276.962L288.906 276.236C215.925 156.845 116.447 95.0204 75.8916 79.0479L76.2236 78.1055Z" fill="black"/>
</svg>
